<svg width="12" height="22" viewBox="0 0 12 22" fill="none" xmlns="http://www.w3.org/2000/svg">
<path d="M11.648 14.416C11.648 15.184 11.456 15.92 11.072 16.624C10.688 17.312 10.12 17.888 9.368 18.352C8.632 18.816 7.744 19.08 6.704 19.144V21.088H5.408V19.144C3.952 19.016 2.768 18.552 1.856 17.752C0.944 16.936 0.48 15.904 0.464 14.656H2.792C2.856 15.328 3.104 15.912 3.536 16.408C3.984 16.904 4.608 17.216 5.408 17.344V11.344C4.336 11.072 3.472 10.792 2.816 10.504C2.16 10.216 1.6 9.768 1.136 9.16C0.672 8.552 0.44 7.736 0.44 6.712C0.44 5.416 0.888 4.344 1.784 3.496C2.696 2.648 3.904 2.176 5.408 2.08V0.0879989H6.704V2.08C8.064 2.192 9.16 2.632 9.992 3.4C10.824 4.152 11.304 5.136 11.432 6.352H9.104C9.024 5.792 8.776 5.288 8.36 4.84C7.944 4.376 7.392 4.072 6.704 3.928V9.784C7.76 10.056 8.616 10.336 9.272 10.624C9.944 10.896 10.504 11.336 10.952 11.944C11.416 12.552 11.648 13.376 11.648 14.416ZM2.672 6.592C2.672 7.376 2.904 7.976 3.368 8.392C3.832 8.808 4.512 9.152 5.408 9.424V3.88C4.576 3.96 3.912 4.232 3.416 4.696C2.92 5.144 2.672 5.776 2.672 6.592ZM6.704 17.368C7.568 17.272 8.24 16.96 8.72 16.432C9.216 15.904 9.464 15.272 9.464 14.536C9.464 13.752 9.224 13.152 8.744 12.736C8.264 12.304 7.584 11.96 6.704 11.704V17.368Z" fill="white"/>
</svg>
