<?xml version="1.0" standalone="no"?>
<!DOCTYPE svg PUBLIC "-//W3C//DTD SVG 20010904//EN"
 "http://www.w3.org/TR/2001/REC-SVG-20010904/DTD/svg10.dtd">
<svg version="1.0" xmlns="http://www.w3.org/2000/svg"
 width="1920.000000pt" height="1920.000000pt" viewBox="0 0 1920.000000 1920.000000"
 preserveAspectRatio="xMidYMid meet">
<metadata>
Created by potrace 1.14, written by Peter Selinger 2001-2017
</metadata>
<g transform="translate(0.000000,1920.000000) scale(0.100000,-0.100000)"
fill="#000000" stroke="none">
<path d="M13339 19196 c-2 -2 -33 -6 -69 -10 -36 -3 -76 -8 -90 -10 -14 -3
-50 -7 -80 -10 -30 -3 -66 -8 -80 -11 -14 -3 -45 -8 -70 -10 -25 -2 -45 -5
-45 -6 0 -2 -15 -4 -75 -13 -19 -3 -46 -7 -60 -10 -14 -3 -43 -8 -65 -11 -44
-6 -80 -13 -80 -15 0 -1 -13 -3 -30 -5 -35 -4 -332 -67 -450 -96 -44 -11 -89
-21 -100 -23 -31 -6 -213 -55 -290 -78 -38 -12 -77 -22 -85 -22 -9 -1 -20 -5
-25 -8 -8 -5 -79 -27 -105 -33 -35 -8 -158 -50 -167 -58 -7 -5 -13 -7 -13 -4
0 3 -37 -8 -82 -24 -46 -17 -90 -32 -98 -34 -8 -2 -32 -11 -52 -19 -21 -9 -38
-13 -38 -10 0 4 -7 0 -17 -7 -9 -8 -17 -12 -17 -10 -1 2 -18 -4 -40 -13 -21
-9 -44 -16 -50 -16 -7 0 -16 -4 -22 -8 -7 -7 -145 -63 -164 -68 -3 0 -16 -5
-30 -11 -14 -6 -47 -20 -75 -31 -27 -11 -77 -32 -110 -47 -33 -15 -73 -33 -90
-40 -124 -54 -516 -243 -525 -254 -3 -3 -48 -28 -100 -54 -98 -51 -361 -197
-370 -207 -3 -3 -25 -16 -50 -29 -25 -13 -52 -30 -61 -37 -8 -8 -20 -14 -26
-14 -6 0 -13 -3 -15 -8 -1 -4 -39 -30 -83 -57 -80 -49 -376 -245 -385 -255 -3
-3 -18 -14 -35 -24 -16 -11 -34 -23 -40 -28 -9 -8 -121 -90 -183 -136 -30 -21
-230 -178 -257 -200 -11 -9 -45 -37 -75 -62 -30 -24 -73 -60 -96 -80 -22 -19
-62 -54 -90 -77 -53 -45 -73 -62 -209 -186 -95 -87 -469 -458 -546 -542 -70
-78 -223 -249 -232 -260 -4 -5 -17 -22 -30 -36 -84 -98 -114 -135 -182 -219
-42 -52 -82 -102 -89 -111 -23 -28 -241 -322 -266 -359 -13 -19 -27 -37 -30
-40 -3 -3 -32 -45 -65 -95 -33 -49 -63 -91 -67 -93 -5 -2 -8 -10 -8 -18 0 -8
-3 -14 -8 -14 -4 0 -12 -9 -17 -20 -12 -24 -137 -223 -145 -230 -7 -7 -29 -42
-37 -60 -3 -8 -21 -39 -40 -68 -18 -29 -33 -57 -33 -62 0 -6 -4 -10 -10 -10
-5 0 -10 -4 -10 -9 0 -5 -23 -48 -50 -96 -28 -48 -50 -91 -50 -96 0 -5 -5 -9
-12 -9 -6 0 -8 -3 -5 -6 4 -4 -2 -19 -12 -33 -17 -26 -43 -74 -110 -206 -19
-38 -39 -73 -44 -76 -5 -3 -8 -9 -7 -13 0 -3 -22 -55 -51 -114 -71 -146 -108
-228 -164 -357 -26 -60 -55 -128 -65 -150 -10 -22 -37 -89 -60 -150 -24 -60
-50 -125 -58 -144 -8 -18 -15 -39 -17 -45 -1 -6 -5 -18 -8 -26 -11 -24 -138
-393 -142 -410 -2 -8 -11 -37 -20 -64 -9 -26 -18 -56 -20 -65 -2 -9 -19 -70
-39 -136 -42 -145 -75 -267 -91 -336 -2 -11 -6 -28 -9 -37 -3 -9 -8 -33 -11
-52 -3 -19 -10 -39 -15 -46 -6 -6 -7 -13 -4 -16 3 -3 0 -26 -6 -49 -7 -24 -14
-53 -16 -64 -5 -28 -9 -46 -33 -160 -11 -55 -22 -113 -25 -130 -2 -16 -12 -68
-21 -115 -10 -47 -19 -101 -20 -120 -2 -19 -6 -44 -8 -55 -3 -11 -8 -42 -11
-70 -4 -27 -8 -61 -11 -75 -7 -42 -13 -89 -30 -240 -14 -127 -16 -271 -11
-1175 4 -879 7 -1110 16 -1110 3 0 7 -28 14 -85 3 -30 8 -68 11 -85 3 -16 6
-44 8 -60 2 -17 5 -35 8 -40 2 -6 4 -27 4 -47 0 -21 2 -38 6 -38 3 0 5 -10 5
-22 1 -13 4 -39 8 -58 4 -19 7 -42 7 -50 1 -8 3 -22 6 -30 3 -8 7 -24 8 -35 2
-11 6 -33 9 -50 4 -16 9 -47 12 -68 5 -30 56 -264 100 -457 3 -14 7 -29 8 -35
1 -5 5 -19 9 -30 3 -11 8 -31 11 -45 3 -14 10 -42 16 -62 16 -61 31 -112 34
-123 1 -5 8 -30 15 -55 17 -64 52 -182 59 -200 3 -8 6 -17 6 -20 2 -11 42
-131 74 -224 19 -55 35 -105 36 -110 1 -6 4 -15 7 -21 6 -10 31 -82 35 -100 1
-5 34 -90 73 -188 39 -98 71 -182 71 -187 0 -6 5 -10 11 -10 5 0 8 -4 5 -8 -3
-5 6 -30 18 -58 13 -27 38 -83 56 -124 47 -109 84 -189 155 -333 35 -70 60
-127 57 -127 -4 0 -2 -4 3 -8 6 -4 24 -34 41 -67 53 -103 137 -260 144 -270 4
-5 19 -30 32 -55 68 -122 172 -295 180 -298 4 -2 8 -8 8 -12 0 -8 40 -76 70
-120 6 -8 51 -77 101 -153 49 -77 99 -148 109 -160 11 -11 20 -26 20 -33 0 -7
3 -14 8 -16 7 -3 144 -188 167 -226 6 -9 16 -23 23 -31 8 -8 32 -39 55 -70 22
-31 45 -59 51 -63 6 -4 7 -8 3 -8 -4 0 3 -10 16 -22 13 -13 39 -44 58 -69 19
-25 54 -69 79 -99 25 -29 72 -85 105 -124 243 -290 629 -685 940 -961 43 -38
89 -79 101 -90 12 -12 37 -32 55 -45 17 -14 47 -40 66 -57 18 -18 36 -33 39
-33 3 0 31 -22 62 -49 120 -103 413 -322 602 -451 45 -30 86 -60 93 -65 7 -6
37 -26 67 -45 30 -19 57 -37 60 -40 3 -3 14 -10 25 -17 11 -6 76 -47 145 -90
139 -87 177 -110 203 -119 9 -3 17 -10 17 -15 0 -5 5 -9 10 -9 6 0 41 -19 78
-41 37 -23 73 -42 80 -42 6 0 12 -4 12 -9 0 -4 6 -8 14 -8 8 0 16 -3 18 -7 2
-5 23 -18 47 -31 72 -37 105 -54 121 -63 155 -84 711 -346 753 -354 9 -2 23
-7 30 -12 6 -4 18 -8 26 -10 8 -1 18 -8 22 -15 5 -7 9 -10 9 -7 0 4 73 -22
163 -57 89 -36 169 -66 177 -67 8 -1 21 -6 27 -10 7 -5 21 -10 30 -12 10 -2
70 -22 133 -44 63 -23 124 -43 135 -46 11 -2 40 -12 65 -21 25 -9 56 -18 69
-20 14 -3 29 -8 35 -12 6 -3 16 -7 21 -8 6 -1 60 -16 120 -33 111 -33 128 -37
166 -46 12 -2 36 -9 53 -14 17 -6 42 -13 56 -16 71 -14 167 -37 180 -42 8 -4
31 -8 50 -10 19 -3 37 -9 38 -14 2 -5 7 -7 11 -5 3 2 56 -6 116 -19 110 -24
130 -28 195 -39 19 -3 49 -9 65 -12 17 -3 41 -8 55 -9 14 -2 25 -4 25 -5 0 -1
11 -3 25 -5 14 -1 37 -5 51 -8 15 -3 53 -9 85 -13 61 -8 72 -10 77 -13 1 -1
20 -4 42 -6 64 -7 216 -27 244 -32 14 -3 270 -8 569 -10 l542 -4 -2 247 -3
248 -160 2 c-218 3 -564 22 -710 39 -16 2 -52 6 -80 9 -167 15 -491 62 -645
92 -14 3 -36 7 -50 9 -55 8 -96 16 -111 21 -10 2 -30 7 -45 9 -16 2 -51 9 -79
15 -27 5 -61 13 -75 15 -14 3 -32 8 -40 11 -8 3 -28 8 -45 11 -16 2 -91 20
-165 39 -74 20 -142 37 -150 39 -8 1 -33 8 -55 14 -22 6 -43 9 -46 8 -3 -1
-13 4 -22 12 -10 7 -17 11 -17 8 0 -3 -12 -2 -27 3 -16 5 -66 20 -113 35 -47
15 -89 28 -95 29 -12 4 -42 15 -73 27 -13 5 -28 7 -33 4 -5 -4 -9 -1 -9 4 0 6
-3 10 -7 10 -5 -1 -11 0 -15 1 -5 1 -11 3 -15 4 -18 4 -89 29 -98 35 -5 3 -15
6 -22 7 -11 2 -203 73 -263 97 -14 6 -27 11 -30 12 -3 1 -18 7 -33 13 -16 7
-30 12 -32 12 -4 0 -262 109 -335 142 -180 80 -574 277 -578 289 -2 5 -8 7
-13 3 -5 -3 -9 0 -9 7 0 7 -3 9 -6 6 -4 -4 -19 2 -34 13 -16 11 -31 20 -34 20
-3 0 -29 14 -58 31 -29 17 -66 39 -83 48 -26 14 -69 40 -258 155 -91 55 -252
162 -255 168 -2 5 -8 8 -12 8 -5 0 -86 54 -180 120 -164 116 -197 140 -225
168 -8 6 -16 12 -19 12 -3 0 -41 28 -84 63 -43 34 -93 73 -111 87 -17 14 -44
35 -59 48 -15 13 -40 33 -55 45 -15 12 -38 31 -51 42 -12 11 -48 43 -81 70
-32 28 -63 55 -69 60 -6 6 -52 46 -101 89 -91 81 -621 606 -611 606 3 0 -7 12
-22 28 -15 15 -58 63 -97 107 -38 44 -76 88 -85 97 -8 9 -26 31 -40 48 -14 17
-34 41 -45 53 -11 12 -45 53 -75 92 -68 86 -78 99 -112 138 -15 18 -28 35 -28
39 0 4 -6 13 -13 20 -7 7 -41 51 -75 98 -34 47 -66 90 -70 95 -4 6 -19 26 -32
45 -14 19 -27 37 -30 40 -3 3 -9 12 -15 21 -15 24 -254 383 -263 394 -4 6 -13
21 -20 35 -6 14 -31 54 -54 90 -201 316 -482 876 -650 1295 -22 55 -45 111
-51 125 -5 14 -12 33 -13 42 -2 10 -13 37 -23 60 -20 45 -115 312 -126 358 -1
3 -4 12 -8 20 -3 8 -21 67 -40 130 -19 63 -43 141 -53 173 -9 33 -17 65 -17
73 0 8 -3 14 -7 14 -4 0 -7 6 -7 14 0 14 -20 99 -31 126 -3 8 -6 20 -7 25 -1
6 -3 12 -4 15 -2 3 -4 14 -6 25 -2 11 -6 29 -8 40 -22 85 -34 145 -30 145 3 0
0 7 -7 15 -7 8 -10 15 -7 15 3 0 1 15 -4 33 -5 17 -12 48 -15 67 -3 19 -7 42
-10 50 -5 13 -27 129 -38 195 -2 11 -7 36 -10 55 -6 34 -20 112 -31 176 -3 18
-7 49 -10 70 -3 22 -11 75 -18 119 -7 44 -12 97 -12 117 0 21 -3 38 -6 38 -3
0 -6 19 -8 43 -1 23 -4 56 -6 72 -10 93 -18 178 -22 235 -7 116 -11 175 -13
175 -12 0 -16 813 -5 1010 4 72 9 155 10 185 3 50 9 128 20 235 2 22 6 74 10
115 3 41 8 86 11 100 3 14 7 45 9 70 4 35 54 367 71 465 12 71 19 104 44 226
16 74 32 149 35 165 3 16 12 56 20 89 9 33 17 69 20 80 6 26 19 79 20 85 1 3
7 25 14 50 7 25 15 54 17 65 2 11 15 58 29 105 14 47 28 96 31 110 5 24 21 74
80 251 14 42 27 83 28 90 2 8 9 28 16 44 7 17 14 37 15 45 2 15 136 369 161
425 7 17 24 58 38 92 60 145 199 447 208 451 5 2 8 9 8 16 0 12 9 29 127 256
68 130 78 148 175 315 125 216 148 252 314 500 70 105 139 207 152 228 14 20
29 37 34 37 4 0 8 6 8 13 0 7 8 22 18 33 9 10 33 41 52 67 19 27 42 56 50 66
8 9 35 44 60 76 24 33 49 65 55 71 5 6 21 26 35 44 14 18 32 41 40 51 8 10 31
37 50 60 19 24 47 55 61 71 14 15 36 41 49 58 13 17 35 43 49 59 14 15 55 60
91 100 158 178 448 469 626 629 32 30 77 70 99 90 37 33 104 92 175 151 14 12
36 31 50 44 14 12 49 40 78 62 28 21 52 43 52 47 0 4 6 8 14 8 8 0 16 4 18 8
3 7 105 88 169 135 13 9 62 46 109 80 86 64 257 184 288 202 9 6 19 12 22 15
3 3 52 36 110 73 58 37 114 74 125 82 10 8 24 15 30 15 7 0 20 9 30 20 10 11
22 20 26 20 5 0 33 16 63 35 30 19 59 35 65 35 5 0 11 3 13 8 2 4 28 20 58 36
30 16 83 47 117 67 33 21 64 35 67 32 3 -4 6 -1 6 6 0 7 5 9 10 6 6 -3 10 -2
10 2 0 5 15 16 33 24 45 22 438 218 459 229 10 6 25 10 33 10 8 0 15 5 15 10
0 6 9 10 20 10 11 0 20 4 20 8 0 4 20 14 45 21 25 7 45 17 45 22 0 5 3 8 8 7
4 -1 18 3 32 9 224 94 271 113 276 113 3 0 20 6 37 14 43 19 228 87 248 91 9
2 25 8 35 14 15 8 114 42 134 46 3 1 52 16 110 35 58 19 107 35 110 35 3 1 39
12 80 25 41 13 82 24 90 24 9 1 20 5 26 8 6 4 21 9 35 12 13 3 33 7 44 10 60
16 343 87 360 90 11 2 33 7 50 12 16 4 39 8 50 9 11 1 27 5 37 9 9 4 31 9 50
11 18 2 33 4 33 5 0 1 9 3 20 5 21 3 61 11 105 20 14 3 41 8 60 10 19 3 46 7
60 10 22 4 56 10 180 30 14 2 44 7 67 10 23 3 57 8 75 11 18 2 56 6 83 9 28 2
59 6 70 9 11 2 52 7 90 10 39 4 88 9 110 12 127 16 495 36 710 38 l150 1 3
248 2 247 -513 0 c-283 0 -516 -2 -518 -4z"/>
<path d="M14057 18274 c-1 -1 -67 -5 -147 -8 -80 -4 -170 -9 -200 -12 -30 -2
-82 -7 -115 -10 -33 -3 -78 -6 -100 -8 -41 -4 -119 -13 -190 -22 -22 -3 -56
-7 -75 -9 -48 -6 -103 -14 -180 -26 -36 -6 -78 -13 -95 -16 -26 -4 -168 -29
-218 -39 -10 -2 -26 -5 -35 -8 -9 -3 -35 -8 -58 -11 -22 -3 -55 -10 -73 -15
-17 -5 -34 -9 -36 -9 -3 -1 -6 -1 -7 -2 -2 0 -12 -2 -23 -3 -30 -4 -138 -27
-155 -34 -8 -3 -22 -6 -31 -8 -8 -2 -42 -11 -75 -19 -32 -9 -66 -18 -74 -20
-24 -5 -161 -43 -215 -59 -27 -8 -68 -20 -90 -26 -48 -14 -364 -118 -385 -127
-8 -3 -18 -7 -22 -8 -5 -2 -10 -4 -13 -5 -3 -1 -8 -3 -12 -4 -5 -1 -35 -12
-68 -25 -33 -13 -64 -24 -70 -25 -5 -2 -22 -8 -37 -14 -16 -6 -89 -37 -164
-67 -75 -31 -159 -67 -187 -81 -28 -13 -54 -24 -59 -24 -4 0 -91 -40 -194 -90
-102 -49 -189 -90 -194 -90 -5 0 -10 -3 -12 -7 -2 -5 -50 -32 -108 -62 -58
-30 -117 -63 -132 -73 -16 -11 -28 -17 -28 -13 0 3 -17 -6 -37 -20 -21 -14
-41 -25 -46 -25 -7 0 -86 -49 -97 -60 -3 -3 -21 -13 -40 -23 -66 -35 -95 -52
-100 -58 -3 -4 -19 -15 -36 -25 -18 -11 -56 -34 -85 -52 -30 -18 -63 -38 -74
-45 -11 -7 -22 -14 -25 -17 -3 -3 -52 -36 -110 -75 -58 -38 -107 -72 -110 -75
-6 -7 -165 -121 -189 -135 -9 -5 -18 -12 -21 -15 -3 -4 -72 -58 -155 -123
-143 -111 -166 -129 -243 -198 -19 -16 -36 -29 -38 -29 -3 0 -15 -10 -28 -22
-12 -13 -40 -38 -62 -56 -189 -160 -639 -608 -794 -791 -25 -30 -52 -61 -61
-70 -15 -16 -118 -137 -132 -156 -4 -5 -17 -21 -28 -35 -11 -14 -33 -40 -47
-59 -15 -19 -32 -39 -37 -45 -6 -6 -44 -56 -85 -111 -41 -55 -77 -102 -80
-105 -3 -3 -39 -52 -80 -110 -41 -58 -78 -106 -82 -108 -5 -2 -8 -9 -8 -14 0
-6 -18 -35 -40 -65 -23 -29 -37 -53 -33 -53 4 0 3 -4 -3 -8 -6 -4 -29 -36 -52
-72 -23 -36 -45 -69 -49 -75 -21 -26 -203 -334 -203 -343 0 -6 -4 -12 -8 -14
-5 -1 -30 -43 -57 -93 -27 -49 -57 -106 -68 -125 -43 -76 -177 -348 -177 -359
0 -6 -4 -11 -10 -11 -5 0 -10 -7 -10 -15 0 -8 -9 -31 -19 -52 -23 -44 -117
-255 -126 -283 -1 -3 -6 -16 -12 -30 -45 -106 -113 -282 -113 -294 0 -8 -3
-16 -7 -18 -9 -4 -60 -153 -53 -154 3 0 0 -7 -6 -15 -11 -14 -81 -221 -124
-369 -12 -41 -24 -82 -27 -90 -7 -17 -9 -25 -16 -60 -3 -14 -11 -41 -17 -60
-6 -19 -13 -44 -15 -55 -3 -11 -16 -65 -31 -120 -14 -55 -27 -109 -30 -120
-12 -56 -17 -82 -18 -97 0 -10 -3 -18 -6 -18 -3 0 -6 -8 -7 -17 -2 -22 -11
-78 -13 -78 -3 0 -10 -40 -13 -67 -1 -16 -6 -28 -10 -28 -5 0 -6 -3 -4 -7 4
-7 -6 -69 -27 -168 -2 -11 -7 -42 -10 -70 -4 -27 -9 -57 -11 -65 -2 -8 -6 -35
-9 -60 -4 -25 -8 -56 -10 -70 -3 -14 -8 -47 -11 -75 -4 -27 -9 -63 -11 -80 -6
-48 -19 -172 -28 -280 -3 -33 -8 -87 -11 -120 -5 -61 -13 -201 -19 -337 -2
-42 -7 -81 -10 -86 -3 -6 -2 -13 4 -17 6 -4 8 -11 4 -16 -3 -5 -5 -94 -4 -197
1 -103 1 -200 0 -217 -1 -16 -2 -34 -1 -40 0 -5 3 -55 5 -110 11 -222 23 -402
32 -485 3 -25 7 -65 9 -90 2 -25 6 -64 9 -87 3 -24 8 -62 11 -85 16 -138 26
-206 45 -318 5 -30 12 -73 15 -95 4 -22 9 -49 12 -60 3 -11 7 -31 9 -45 1 -14
5 -36 8 -50 4 -14 8 -36 11 -50 3 -14 7 -36 10 -50 3 -14 7 -36 10 -50 3 -14
7 -36 10 -50 3 -14 8 -36 11 -50 3 -14 10 -43 15 -65 5 -22 12 -49 14 -60 20
-91 40 -169 56 -219 11 -33 17 -61 15 -63 -2 -3 2 -21 11 -41 8 -20 17 -45 19
-56 6 -30 34 -127 46 -156 6 -14 12 -36 15 -50 2 -14 18 -63 35 -110 16 -47
31 -92 33 -100 2 -8 4 -16 5 -17 2 -2 3 -6 5 -10 1 -5 4 -15 8 -23 9 -24 47
-130 69 -195 11 -33 25 -64 29 -70 5 -5 9 -15 9 -23 0 -7 12 -39 26 -70 15
-31 27 -63 27 -69 0 -7 5 -13 10 -13 6 0 7 -3 4 -6 -3 -4 -1 -16 5 -28 7 -11
13 -23 13 -26 1 -3 7 -18 15 -35 7 -16 18 -43 25 -60 13 -32 44 -100 102 -225
38 -82 129 -266 140 -284 4 -6 8 -13 8 -16 1 -6 43 -85 85 -160 17 -30 38 -71
48 -90 9 -19 20 -37 23 -40 3 -3 23 -36 44 -75 21 -38 41 -72 45 -75 4 -3 10
-15 14 -27 4 -13 12 -23 17 -23 5 0 9 -5 9 -11 0 -15 85 -151 207 -332 51 -76
93 -142 93 -147 0 -5 9 -14 20 -20 11 -6 20 -17 20 -25 0 -7 6 -20 13 -27 26
-27 107 -139 107 -147 0 -5 3 -11 8 -13 4 -1 33 -37 65 -78 92 -122 95 -125
122 -154 14 -15 25 -30 25 -33 0 -3 15 -22 33 -42 33 -39 46 -54 137 -161 30
-36 59 -70 65 -76 5 -6 44 -49 85 -95 75 -85 550 -564 550 -556 0 3 20 -14 44
-37 61 -58 177 -159 235 -206 17 -14 44 -36 60 -50 47 -41 74 -63 121 -100 25
-19 50 -39 57 -45 27 -22 40 -33 98 -75 33 -25 64 -49 70 -53 60 -47 170 -127
175 -127 3 0 15 -8 26 -17 33 -29 202 -143 213 -143 5 0 11 -4 13 -9 2 -7 145
-100 253 -164 10 -7 25 -18 33 -25 7 -7 17 -10 22 -7 5 3 10 2 12 -2 4 -10
106 -73 117 -73 5 0 14 -7 21 -15 7 -8 16 -12 21 -9 5 3 12 -2 15 -10 3 -9 13
-16 21 -16 8 0 27 -9 42 -20 27 -18 515 -270 526 -271 2 0 37 -15 77 -33 64
-30 120 -54 258 -113 19 -8 44 -19 55 -24 11 -5 72 -28 135 -52 63 -24 124
-48 135 -52 11 -5 23 -9 28 -10 4 -2 9 -4 12 -5 3 -1 10 -4 15 -5 6 -1 12 -4
15 -5 3 -1 8 -3 13 -5 4 -1 14 -5 22 -8 40 -18 340 -115 340 -110 0 3 7 0 15
-7 8 -7 15 -10 15 -6 0 3 12 1 28 -5 23 -9 162 -51 212 -64 8 -2 68 -17 132
-34 65 -17 128 -32 140 -35 13 -2 41 -9 63 -14 44 -12 88 -22 122 -27 11 -2
32 -6 44 -10 13 -5 35 -9 49 -11 14 -1 36 -5 50 -8 52 -12 126 -26 164 -32 21
-3 48 -8 60 -10 11 -2 37 -7 56 -10 19 -2 48 -7 65 -11 16 -3 43 -7 60 -9 16
-2 44 -5 60 -8 36 -5 104 -14 160 -21 22 -3 65 -8 95 -11 30 -4 74 -8 97 -8
24 -1 43 -3 43 -6 0 -3 19 -6 43 -6 23 -1 78 -4 122 -8 174 -13 247 -17 420
-21 99 -2 185 -4 190 -5 44 -9 43 -15 44 270 l1 270 -27 0 c-93 1 -434 12
-463 15 -19 2 -78 7 -130 10 -52 3 -108 7 -125 9 -16 2 -66 7 -110 11 -44 4
-87 8 -96 10 -9 2 -40 6 -70 10 -30 3 -65 8 -79 10 -33 7 -106 16 -151 19 -20
2 -42 7 -48 10 -6 4 -30 9 -53 11 -55 6 -103 13 -103 15 0 1 -9 3 -20 5 -11 2
-33 6 -50 9 -42 9 -126 26 -150 30 -11 2 -39 9 -62 15 -23 6 -45 11 -50 10 -4
-1 -10 0 -13 1 -3 1 -12 3 -20 5 -8 1 -62 15 -120 30 -58 15 -112 29 -120 30
-8 2 -15 4 -15 5 0 1 -7 3 -15 5 -49 11 -109 27 -220 60 -69 21 -131 38 -137
38 -7 0 -13 4 -13 9 0 5 -4 7 -9 3 -5 -3 -12 -1 -16 5 -3 5 -17 10 -30 10 -13
0 -27 5 -30 10 -4 6 -11 7 -17 4 -6 -4 -13 -2 -17 4 -3 6 -18 13 -31 15 -29 6
-139 45 -265 94 -49 19 -94 36 -100 37 -5 1 -20 7 -32 14 -12 7 -29 12 -37 12
-9 0 -16 5 -16 12 0 6 -3 9 -6 6 -5 -5 -78 24 -239 96 -227 102 -482 231 -693
353 -52 29 -98 53 -103 53 -5 0 -9 5 -9 10 0 6 -5 10 -11 10 -6 0 -30 14 -54
30 -24 17 -46 30 -50 30 -3 0 -38 21 -78 48 -40 26 -80 52 -90 57 -31 18 -310
210 -321 220 -6 6 -33 26 -61 45 -27 18 -52 36 -55 40 -3 3 -21 17 -40 30 -19
14 -42 30 -50 37 -8 7 -64 51 -125 99 -60 48 -111 90 -113 95 -2 5 -8 9 -13 9
-4 0 -24 16 -44 35 -19 20 -35 33 -35 30 0 -3 -11 4 -23 17 -13 13 -52 48 -87
78 -112 98 -211 192 -375 356 -169 170 -203 206 -330 349 -44 50 -82 92 -85
95 -3 3 -21 25 -41 50 -20 25 -47 56 -59 70 -12 14 -34 41 -49 60 -14 19 -36
46 -49 60 -12 14 -39 49 -59 78 -20 28 -40 52 -45 52 -4 0 -8 6 -8 14 0 8 -3
16 -8 18 -4 2 -32 37 -62 78 -30 41 -60 81 -67 88 -7 7 -13 17 -13 22 0 5 -6
15 -13 22 -7 7 -52 72 -100 143 -48 72 -94 139 -102 150 -8 10 -15 25 -15 32
0 7 -4 13 -8 13 -5 0 -16 15 -26 33 -19 35 -29 53 -67 112 -14 22 -38 63 -53
90 -16 28 -32 55 -36 60 -4 6 -24 39 -43 75 -19 36 -51 94 -71 130 -39 71
-188 370 -231 465 -60 133 -74 164 -110 250 -44 107 -47 114 -74 185 -11 30
-26 69 -32 85 -7 17 -13 32 -14 35 -1 3 -5 14 -9 25 -4 11 -17 45 -28 75 -11
30 -25 69 -31 85 -7 17 -12 33 -13 38 -1 4 -2 8 -4 10 -1 1 -3 9 -5 18 -1 9
-19 66 -38 125 -35 107 -86 281 -92 313 -2 9 -4 17 -5 19 -2 1 -4 7 -5 12 -1
6 -4 13 -5 18 -1 4 -3 12 -5 17 -1 6 -3 12 -4 15 -2 5 -8 26 -16 65 -2 11 -9
40 -15 65 -6 25 -13 55 -15 68 -3 13 -19 80 -35 150 -16 70 -32 145 -35 167
-4 22 -9 54 -13 70 -3 17 -6 40 -6 53 -1 12 -3 22 -6 22 -3 0 -7 15 -8 33 -1
18 -5 44 -8 57 -5 24 -7 37 -19 125 -3 22 -7 51 -9 65 -3 14 -7 48 -10 75 -3
28 -8 61 -10 75 -3 14 -7 57 -11 95 -3 39 -8 81 -10 95 -3 14 -7 68 -11 120
-3 52 -8 113 -10 135 -20 237 -20 819 0 1074 3 31 8 94 11 140 4 47 8 92 10
102 2 9 6 50 10 91 9 106 13 138 31 258 3 19 7 49 9 65 2 17 7 44 10 60 3 17
7 48 10 70 6 49 13 90 15 90 1 0 3 9 4 20 5 31 16 96 21 119 3 12 7 32 9 46
10 57 77 352 101 440 14 52 28 109 31 125 3 17 10 38 15 48 5 9 7 17 5 17 -3
0 -1 12 5 28 9 24 77 240 84 267 1 6 5 18 8 28 8 19 16 46 17 50 0 1 14 40 31
87 17 47 32 90 34 95 1 6 6 19 10 30 4 11 33 83 62 160 67 171 96 240 178 420
15 33 27 61 26 62 0 2 11 23 24 48 14 25 22 45 18 45 -4 0 -3 4 3 8 12 8 74
133 74 150 0 7 4 12 9 12 5 0 16 17 25 38 8 20 33 69 54 107 21 39 54 97 72
130 18 33 41 72 52 88 11 15 16 27 11 27 -4 0 -3 4 3 8 6 4 26 34 44 67 19 33
49 81 67 108 18 26 30 47 26 47 -5 0 -3 4 2 8 6 4 44 59 85 122 41 63 78 120
82 125 5 6 36 51 71 100 72 103 194 269 247 335 97 120 229 279 261 315 20 22
50 56 65 74 113 136 499 521 683 681 35 30 73 64 85 75 36 32 77 67 136 115
30 25 60 49 67 55 51 42 217 170 282 218 36 26 98 69 136 95 39 26 72 50 75
53 8 8 202 139 207 139 2 0 25 15 51 33 62 42 83 55 105 63 9 3 17 10 17 15 0
5 4 9 10 9 5 0 53 26 107 59 54 32 125 73 158 91 33 18 85 46 115 63 175 97
472 237 750 354 19 8 50 21 68 29 18 8 39 14 47 14 8 0 15 5 15 12 0 6 3 9 6
6 3 -3 40 8 82 24 42 16 97 36 122 44 25 8 54 19 65 24 22 9 174 61 190 64 16
3 158 47 187 58 14 5 42 14 62 19 20 5 53 14 74 19 20 6 44 12 52 14 8 2 69
18 135 35 66 16 174 42 240 56 120 27 134 30 190 39 17 3 41 8 55 11 36 8 151
27 180 30 14 1 39 5 55 8 35 7 99 17 135 22 14 2 48 6 75 10 68 9 118 14 195
20 36 3 77 8 91 10 71 13 464 33 656 34 l93 1 -1 270 0 269 -155 -2 c-86 -1
-156 -3 -157 -3z"/>
<path d="M14107 17174 c-1 -1 -60 -5 -132 -8 -154 -7 -263 -14 -325 -21 -25
-3 -70 -8 -100 -10 -30 -3 -100 -12 -155 -20 -55 -7 -120 -16 -145 -19 -25 -3
-56 -8 -70 -11 -65 -12 -77 -15 -110 -19 -42 -7 -66 -11 -195 -37 -55 -12
-109 -22 -120 -24 -11 -2 -69 -15 -130 -30 -60 -15 -121 -29 -134 -32 -14 -2
-28 -6 -33 -9 -4 -3 -17 -7 -28 -10 -45 -10 -69 -16 -130 -34 -25 -7 -49 -14
-55 -16 -22 -5 -158 -49 -295 -95 -80 -28 -149 -51 -155 -53 -5 -2 -19 -6 -30
-11 -11 -4 -49 -18 -85 -32 -84 -32 -204 -80 -257 -104 -23 -11 -44 -19 -47
-19 -5 0 -132 -59 -256 -118 -52 -25 -97 -46 -100 -47 -3 0 -9 -3 -15 -7 -5
-3 -55 -29 -110 -58 -93 -49 -262 -142 -330 -182 -16 -10 -41 -24 -55 -30 -14
-7 -27 -15 -30 -18 -3 -3 -30 -21 -60 -39 -91 -56 -135 -85 -142 -96 -4 -5 -8
-6 -8 -2 0 5 -17 -4 -38 -20 -20 -15 -45 -32 -54 -38 -37 -21 -140 -95 -304
-216 -160 -118 -193 -144 -250 -194 -12 -11 -32 -27 -44 -35 -12 -8 -32 -24
-44 -35 -12 -11 -44 -38 -70 -60 -72 -61 -86 -73 -191 -170 -121 -110 -362
-351 -470 -470 -44 -49 -91 -100 -104 -114 -13 -14 -37 -43 -55 -65 -17 -21
-38 -46 -47 -55 -8 -9 -33 -38 -55 -66 -49 -62 -76 -94 -91 -111 -7 -7 -13
-17 -13 -23 0 -6 -4 -11 -9 -11 -4 0 -21 -19 -37 -42 -16 -24 -34 -49 -41 -56
-6 -7 -40 -52 -75 -100 -34 -48 -66 -88 -70 -90 -4 -2 -8 -10 -8 -17 0 -7 -3
-15 -7 -17 -5 -1 -21 -23 -37 -47 -16 -25 -33 -50 -38 -55 -13 -16 -138 -206
-138 -211 0 -2 -25 -43 -55 -90 -30 -46 -55 -87 -55 -89 0 -2 -20 -37 -45 -78
-25 -42 -45 -80 -45 -86 0 -6 -3 -12 -7 -14 -10 -4 -28 -39 -147 -273 -96
-190 -147 -298 -191 -405 -15 -36 -35 -83 -45 -105 -9 -22 -29 -71 -44 -110
-15 -38 -33 -86 -41 -105 -94 -236 -268 -814 -308 -1030 -3 -14 -13 -59 -22
-100 -9 -41 -18 -86 -20 -100 -2 -14 -15 -90 -29 -170 -14 -80 -28 -163 -31
-185 -3 -23 -7 -50 -9 -60 -2 -11 -7 -49 -11 -85 -4 -36 -9 -83 -12 -105 -3
-22 -7 -53 -8 -70 -19 -212 -20 -227 -31 -420 -8 -162 -8 -549 1 -715 4 -74 8
-160 10 -190 1 -30 3 -55 4 -55 1 0 4 -29 6 -65 3 -60 7 -100 21 -220 3 -25 7
-58 9 -75 2 -16 6 -46 9 -65 3 -19 10 -66 15 -105 6 -38 13 -79 15 -90 2 -12
8 -48 12 -80 4 -33 9 -62 9 -65 10 -37 15 -61 20 -90 11 -62 13 -74 20 -105 4
-16 9 -43 12 -60 2 -16 6 -36 8 -43 3 -7 5 -14 6 -17 7 -33 31 -134 34 -145 2
-8 18 -69 35 -135 17 -66 33 -128 35 -137 2 -9 9 -26 15 -38 6 -11 8 -25 5
-30 -3 -6 -1 -10 5 -10 7 0 10 -6 8 -12 -3 -7 6 -41 18 -75 13 -35 20 -63 17
-63 -3 0 -1 -6 4 -12 5 -7 15 -33 23 -58 36 -120 172 -478 231 -608 16 -35 29
-65 29 -67 0 -32 321 -657 400 -780 11 -16 23 -37 27 -45 11 -24 120 -196 195
-308 37 -56 68 -106 68 -111 0 -5 4 -11 8 -13 4 -1 37 -43 72 -93 36 -49 67
-92 70 -95 3 -3 30 -39 60 -80 30 -41 57 -77 60 -80 3 -3 43 -52 89 -110 47
-58 87 -107 90 -110 4 -3 31 -34 61 -70 30 -36 64 -75 75 -86 11 -12 54 -59
95 -104 277 -303 636 -630 960 -873 74 -56 137 -104 140 -107 3 -3 37 -28 75
-55 39 -27 72 -51 75 -54 3 -4 17 -12 32 -20 15 -8 37 -22 47 -33 11 -10 22
-18 25 -18 8 0 130 -83 137 -93 3 -5 9 -7 12 -5 4 1 15 -5 27 -14 11 -10 20
-16 20 -13 0 2 25 -13 57 -35 31 -22 60 -40 66 -40 5 0 21 -8 35 -19 15 -10
44 -28 65 -40 20 -11 54 -31 75 -42 65 -38 134 -74 252 -135 63 -32 116 -62
118 -66 2 -5 10 -8 17 -8 7 0 64 -24 127 -54 145 -69 227 -106 234 -106 3 0
24 -8 47 -19 127 -57 331 -132 547 -202 85 -27 166 -54 179 -60 13 -5 26 -7
29 -5 2 3 13 1 24 -5 11 -6 43 -17 71 -25 101 -27 362 -94 387 -98 14 -2 25
-5 25 -6 0 -1 9 -3 20 -5 11 -2 34 -6 50 -8 17 -3 50 -10 75 -16 25 -7 59 -13
75 -16 30 -4 123 -21 160 -28 11 -3 45 -8 75 -12 30 -4 62 -9 70 -10 8 -1 40
-6 70 -10 30 -4 62 -9 70 -10 8 -2 42 -6 75 -9 33 -4 80 -9 105 -12 52 -6 129
-12 215 -18 33 -3 60 -5 60 -6 0 -3 251 -12 375 -14 l135 -1 2 268 c1 147 -1
267 -5 268 -4 0 -70 2 -147 4 -128 3 -232 8 -405 20 -63 4 -94 7 -210 20 -30
4 -73 8 -95 10 -22 2 -51 6 -65 9 -14 3 -45 7 -70 10 -25 3 -61 9 -80 12 -89
14 -198 33 -225 39 -16 3 -52 10 -80 15 -27 5 -59 12 -70 14 -11 3 -51 12 -90
21 -38 8 -81 18 -95 21 -14 3 -32 7 -40 8 -8 2 -22 6 -30 9 -8 2 -53 14 -100
26 -100 26 -113 30 -380 116 -227 74 -464 165 -669 257 -165 74 -483 236 -606
308 -49 29 -103 60 -120 70 -16 9 -63 38 -103 63 -40 26 -76 47 -81 47 -5 0
-11 3 -13 8 -2 4 -28 23 -58 42 -30 18 -81 53 -113 77 -31 24 -60 43 -63 43
-7 0 -118 84 -122 93 -2 4 -10 7 -17 7 -7 0 -15 3 -17 8 -1 4 -42 37 -90 73
-89 68 -153 119 -194 154 -12 11 -42 36 -65 55 -23 19 -54 45 -67 58 -14 12
-48 41 -76 65 -67 56 -496 485 -566 567 -30 35 -63 71 -72 79 -10 9 -18 19
-18 23 0 4 -10 18 -22 31 -40 41 -98 108 -98 114 0 2 -6 10 -12 17 -15 15 -45
54 -112 141 -25 33 -49 65 -54 70 -12 15 -115 159 -127 177 -5 8 -43 63 -82
121 -40 59 -73 111 -73 116 0 5 -4 11 -8 13 -11 4 -162 253 -162 266 0 7 -3
12 -7 12 -5 0 -26 35 -48 78 -22 42 -42 79 -46 82 -5 5 -189 368 -188 373 0 1
-16 38 -36 82 -20 44 -57 130 -82 190 -25 61 -49 119 -54 130 -34 80 -97 260
-93 267 3 4 0 8 -5 8 -6 0 -11 11 -11 24 0 14 -4 28 -10 31 -5 3 -10 16 -10
29 0 12 -5 27 -12 34 -7 7 -9 12 -5 12 3 0 2 12 -4 28 -25 64 -106 345 -124
432 -2 8 -4 15 -5 15 -1 0 -3 7 -5 15 -1 9 -15 69 -29 135 -24 106 -37 167
-52 243 -2 12 -7 34 -10 50 -3 15 -6 38 -7 52 -1 14 -5 30 -8 35 -3 6 -5 27
-5 47 1 21 -2 38 -5 38 -3 0 -6 6 -6 13 -1 11 -6 57 -17 147 -2 19 -7 53 -10
75 -3 22 -8 65 -11 95 -2 30 -7 80 -10 110 -27 259 -36 702 -21 990 5 80 9
169 10 197 0 29 3 53 6 53 3 0 5 15 6 33 1 39 13 173 18 207 2 14 7 50 11 80
12 100 16 135 21 160 3 14 7 39 10 55 9 64 14 94 34 195 12 58 23 114 25 125
1 11 8 43 15 70 19 81 20 84 25 108 25 114 94 363 142 511 19 59 36 113 38
120 1 6 7 22 12 36 6 14 18 46 27 73 16 48 71 196 86 232 4 11 15 36 23 55 8
19 39 91 68 160 29 69 91 202 138 295 46 94 84 173 83 178 -1 4 2 7 8 7 5 0
10 4 10 9 0 9 97 186 120 221 6 8 13 22 17 30 11 24 111 185 190 305 95 144
94 143 121 176 13 16 20 29 15 29 -4 0 -3 4 2 8 6 4 57 70 115 147 57 77 109
145 115 151 5 6 21 26 35 44 14 18 30 38 35 44 6 6 30 36 55 66 25 30 52 62
60 70 8 9 35 38 58 65 236 269 550 572 800 775 24 19 54 43 65 54 36 30 329
250 382 286 150 102 236 159 285 189 30 19 66 41 80 50 53 33 174 101 181 101
4 0 9 3 11 8 2 4 23 18 48 31 103 56 247 131 275 145 17 7 82 39 145 69 130
62 292 132 425 184 115 45 305 114 326 118 8 2 33 11 55 20 21 9 41 16 44 15
5 0 165 47 190 57 8 3 20 7 25 8 6 2 39 10 75 20 36 9 73 18 83 20 10 2 28 7
40 11 12 4 31 9 42 11 11 2 87 19 170 38 82 19 163 36 180 39 16 2 68 11 115
20 47 8 101 17 120 20 19 3 55 8 80 12 25 4 56 8 70 9 14 2 25 4 25 5 0 1 18
3 40 5 22 1 63 6 90 10 28 4 75 8 105 11 30 2 80 6 110 9 104 10 215 16 382
19 91 2 171 7 177 10 7 5 10 96 10 270 l0 263 -130 -1 c-72 0 -131 -2 -132 -2z"/>
<path d="M14137 16034 c-1 -1 -56 -4 -122 -8 -66 -3 -154 -9 -195 -13 -41 -4
-90 -7 -107 -7 -18 -1 -33 -3 -33 -6 0 -3 -19 -6 -43 -7 -23 -1 -60 -4 -82 -7
-22 -4 -56 -8 -75 -11 -94 -11 -117 -15 -140 -20 -46 -9 -75 -14 -110 -19 -49
-8 -81 -14 -189 -37 -51 -12 -101 -22 -110 -24 -9 -2 -45 -11 -81 -20 -36 -9
-73 -19 -82 -21 -10 -2 -26 -6 -35 -8 -42 -9 -135 -36 -228 -66 -55 -17 -120
-37 -145 -45 -81 -24 -175 -60 -182 -70 -4 -5 -8 -7 -8 -3 0 6 -104 -28 -155
-52 -11 -5 -45 -19 -75 -31 -69 -27 -96 -39 -195 -84 -136 -63 -150 -69 -157
-67 -5 1 -8 -3 -8 -9 0 -5 -4 -8 -9 -5 -5 4 -11 3 -13 -1 -1 -5 -41 -27 -88
-50 -93 -46 -292 -154 -300 -162 -3 -4 -25 -17 -50 -30 -46 -25 -247 -149
-265 -163 -33 -27 -127 -88 -135 -88 -6 0 -10 -4 -10 -8 0 -4 -15 -16 -32 -27
-18 -10 -35 -21 -38 -24 -3 -3 -66 -52 -140 -107 -74 -56 -148 -114 -163 -128
-15 -14 -30 -26 -32 -26 -3 0 -66 -54 -97 -82 -10 -10 -20 -18 -23 -18 -3 0
-18 -12 -34 -27 -15 -16 -74 -71 -131 -123 -147 -136 -243 -232 -444 -450 -29
-31 -152 -178 -181 -214 -16 -21 -34 -44 -40 -50 -36 -40 -85 -106 -85 -114 0
-6 -4 -12 -9 -14 -6 -1 -48 -57 -95 -123 -47 -66 -89 -124 -93 -130 -40 -51
-235 -366 -300 -485 -71 -128 -155 -288 -158 -300 -1 -3 -22 -48 -47 -100 -69
-144 -97 -207 -104 -235 -3 -14 -10 -25 -15 -25 -5 0 -8 -3 -7 -7 2 -5 -6 -28
-16 -53 -10 -25 -17 -45 -16 -45 0 0 -13 -34 -30 -75 -18 -41 -33 -79 -34 -85
-2 -5 -6 -17 -9 -25 -3 -8 -15 -42 -27 -75 -11 -33 -23 -67 -27 -75 -3 -8 -7
-22 -8 -30 -2 -8 -15 -51 -29 -95 -15 -44 -29 -88 -31 -98 -2 -10 -9 -33 -15
-52 -21 -71 -29 -101 -34 -125 -3 -14 -15 -61 -26 -105 -19 -74 -55 -237 -66
-295 -2 -14 -9 -47 -14 -75 -21 -103 -39 -229 -34 -236 2 -4 0 -10 -6 -14 -6
-4 -8 -9 -6 -13 2 -4 0 -27 -5 -52 -5 -25 -11 -70 -13 -100 -2 -30 -7 -84 -10
-120 -4 -36 -9 -83 -11 -105 -24 -255 -25 -829 0 -1070 3 -27 7 -77 10 -110 5
-57 8 -84 20 -180 10 -81 14 -111 19 -135 3 -14 8 -41 10 -60 13 -90 16 -106
21 -126 2 -12 7 -39 11 -60 3 -21 7 -43 9 -49 3 -13 15 -76 19 -95 2 -8 6 -26
9 -40 3 -14 16 -65 27 -115 12 -49 24 -99 27 -110 3 -11 6 -28 6 -37 1 -10 4
-18 7 -18 4 0 7 -6 8 -12 0 -7 6 -31 12 -53 6 -22 12 -48 15 -57 2 -9 20 -68
39 -130 20 -62 35 -116 33 -119 -1 -3 3 -12 9 -20 6 -8 24 -54 39 -104 16 -49
34 -93 40 -97 5 -4 6 -8 0 -8 -5 0 -4 -5 3 -12 7 -7 12 -18 12 -25 0 -8 7 -30
17 -51 9 -20 17 -39 18 -42 6 -16 19 -49 30 -75 7 -16 30 -70 51 -120 47 -112
232 -484 252 -507 8 -10 12 -18 9 -18 -6 0 31 -61 53 -87 5 -7 10 -17 10 -23
0 -10 27 -58 40 -70 3 -3 14 -21 24 -40 10 -19 71 -113 135 -209 64 -96 121
-182 126 -190 6 -9 12 -18 15 -21 3 -3 30 -39 60 -80 30 -41 81 -109 114 -150
34 -41 65 -81 71 -89 5 -7 22 -27 37 -43 15 -16 33 -37 40 -47 15 -21 110
-129 188 -214 85 -92 276 -281 369 -366 47 -42 92 -83 101 -91 9 -8 43 -37 75
-65 33 -27 62 -52 65 -55 12 -14 164 -133 255 -201 55 -41 102 -76 105 -79 3
-3 12 -9 21 -15 18 -11 318 -211 335 -223 10 -7 35 -22 89 -52 18 -10 43 -24
56 -32 13 -7 26 -16 29 -19 6 -7 200 -111 295 -159 39 -19 71 -38 73 -42 2 -5
8 -8 14 -8 5 0 44 -17 86 -37 43 -20 79 -38 82 -38 3 -1 23 -10 45 -19 42 -19
89 -39 140 -61 74 -33 314 -124 350 -135 13 -3 55 -19 75 -27 8 -3 20 -7 25
-7 6 -1 42 -12 80 -25 85 -28 302 -91 330 -95 11 -2 61 -14 110 -26 95 -23
112 -27 148 -35 12 -2 42 -9 67 -15 25 -5 72 -14 105 -19 87 -15 117 -20 145
-26 14 -3 45 -8 70 -11 25 -3 56 -7 70 -9 14 -2 48 -7 75 -10 28 -3 68 -8 90
-11 155 -19 364 -33 575 -39 l149 -3 -2 270 -2 270 -165 3 c-91 3 -190 7 -222
9 -31 3 -87 8 -125 11 -107 9 -217 21 -273 31 -14 2 -45 6 -70 10 -25 3 -56 8
-70 10 -14 3 -41 7 -60 10 -19 2 -46 7 -60 10 -14 4 -34 7 -45 9 -18 2 -91 16
-155 31 -14 3 -34 7 -45 9 -163 26 -718 202 -930 295 -11 5 -65 28 -120 51
-123 52 -515 249 -515 259 0 3 -6 7 -12 7 -7 0 -39 16 -70 36 -31 21 -62 37
-68 37 -5 0 -10 5 -10 10 0 6 -5 10 -11 10 -6 0 -31 14 -56 30 -24 17 -48 30
-54 30 -5 0 -9 5 -9 10 0 6 -5 10 -11 10 -6 0 -16 6 -24 13 -7 6 -36 26 -64
42 -28 17 -51 33 -51 38 0 4 -4 7 -9 7 -11 0 -205 138 -238 170 -13 11 -23 17
-23 13 0 -4 -4 -3 -8 2 -4 6 -54 49 -112 95 -107 86 -151 124 -202 172 -16 16
-31 28 -33 28 -3 0 -27 23 -54 50 -27 28 -51 50 -54 50 -2 0 -39 36 -83 81
-43 45 -88 89 -98 98 -10 9 -26 24 -35 35 -9 10 -27 31 -41 46 -82 88 -150
163 -185 205 -22 27 -45 53 -50 59 -6 6 -28 35 -50 64 -21 28 -42 52 -46 52
-4 0 -10 8 -13 18 -4 10 -14 27 -24 38 -34 36 -136 178 -236 329 -101 153
-118 180 -167 267 -14 26 -30 53 -36 60 -6 7 -23 38 -39 68 -15 30 -37 67 -47
83 -10 15 -15 27 -10 27 4 0 3 4 -2 8 -9 6 -155 295 -155 306 0 3 -15 37 -34
78 -72 158 -198 496 -190 510 3 4 0 8 -5 8 -6 0 -14 18 -17 40 -4 22 -11 43
-15 46 -5 3 -9 16 -9 30 0 13 -4 32 -10 42 -16 30 -61 202 -55 212 4 6 2 10
-3 10 -5 0 -15 28 -22 63 -7 34 -15 69 -17 77 -2 8 -6 24 -8 35 -2 11 -15 75
-29 142 -14 68 -28 144 -31 170 -4 27 -8 55 -10 63 -2 8 -7 38 -10 65 -4 28
-8 57 -10 65 -3 8 -7 40 -10 70 -3 30 -8 73 -10 95 -21 187 -27 331 -28 615
-1 287 5 439 17 458 4 7 2 12 -4 12 -6 0 -9 4 -5 10 5 9 13 71 19 150 4 41 15
134 21 170 2 14 7 45 10 70 3 25 8 63 12 85 3 22 7 49 9 60 1 11 3 20 4 20 1
0 3 11 6 25 2 14 8 48 14 75 5 28 12 61 14 75 3 14 8 36 11 50 3 14 8 36 11
50 5 24 21 97 29 130 2 8 10 38 18 65 8 28 25 91 38 140 13 50 26 92 29 95 5
5 7 12 15 50 13 58 141 408 157 428 6 6 8 12 5 12 -6 0 43 117 89 215 15 33
28 62 29 65 0 3 11 24 23 48 12 23 19 42 15 42 -5 0 -3 4 2 8 6 4 32 50 59
102 94 183 155 289 251 440 30 47 58 92 62 100 3 8 9 17 12 20 4 3 31 41 61
85 53 79 219 305 230 315 4 3 24 28 46 55 21 28 49 61 61 75 29 34 57 66 101
119 56 67 437 448 516 516 39 33 77 67 86 75 8 8 36 31 60 50 25 19 47 37 50
40 47 50 550 411 550 394 0 -2 10 4 22 16 12 11 28 20 35 20 7 0 13 4 13 9 0
5 10 13 23 17 12 3 29 12 37 19 15 13 51 34 120 71 19 11 38 24 42 29 5 7 8 7
8 0 0 -7 3 -7 8 0 4 6 27 21 52 33 116 61 217 112 240 121 14 6 32 15 40 20
35 21 151 71 164 71 7 0 19 6 25 14 10 12 66 31 84 27 4 0 7 3 7 7 0 4 17 14
38 21 20 7 46 16 57 22 42 19 341 124 385 134 8 2 62 18 120 35 116 34 325 87
380 96 19 3 38 8 42 10 3 2 28 7 54 10 27 3 52 8 57 11 4 2 24 7 45 9 20 3 48
7 62 9 14 3 40 7 58 10 17 3 47 7 65 10 17 3 43 7 57 9 14 3 52 7 85 11 33 3
74 8 90 10 31 5 104 11 235 21 41 3 138 7 215 9 77 2 148 4 158 4 16 1 17 21
17 269 l0 268 -116 0 c-64 -1 -116 -2 -117 -2z"/>
<path d="M14095 14961 c-2 -2 -39 -5 -82 -7 -43 -2 -105 -6 -138 -9 -33 -4
-76 -8 -95 -10 -60 -6 -124 -14 -150 -19 -24 -4 -73 -11 -153 -23 -46 -6 -72
-11 -72 -13 0 -1 -9 -3 -20 -5 -56 -8 -102 -17 -117 -21 -10 -3 -30 -7 -45
-10 -16 -3 -36 -7 -45 -10 -9 -3 -25 -6 -35 -8 -10 -2 -47 -12 -83 -21 -36 -9
-72 -19 -80 -20 -8 -2 -15 -4 -15 -5 0 -1 -11 -4 -25 -7 -30 -6 -41 -8 -60
-15 -44 -17 -299 -99 -320 -104 -13 -3 -30 -10 -37 -16 -7 -6 -13 -7 -13 -2 0
4 -5 3 -12 -4 -7 -7 -20 -12 -30 -12 -10 0 -18 -5 -18 -12 0 -6 -3 -9 -6 -6
-6 6 -91 -26 -182 -68 -29 -13 -55 -24 -57 -24 -2 0 -37 -16 -76 -35 -40 -19
-78 -35 -85 -35 -7 0 -14 -4 -16 -8 -1 -4 -46 -29 -98 -55 -88 -44 -128 -65
-235 -127 -22 -13 -49 -28 -60 -34 -57 -32 -280 -180 -283 -188 -2 -4 -8 -8
-13 -8 -8 0 -107 -67 -119 -80 -3 -3 -21 -17 -40 -30 -19 -13 -37 -27 -40 -30
-3 -3 -23 -19 -45 -35 -43 -32 -42 -31 -160 -130 -245 -206 -483 -445 -686
-690 -22 -27 -49 -59 -59 -71 -9 -12 -44 -57 -76 -100 -32 -43 -61 -81 -64
-84 -3 -3 -19 -25 -35 -50 -16 -25 -32 -47 -35 -50 -13 -12 -141 -210 -140
-216 1 -4 -2 -10 -7 -13 -12 -8 -99 -153 -154 -256 -23 -44 -47 -83 -53 -87
-6 -4 -8 -8 -4 -8 4 0 -17 -47 -47 -105 -30 -58 -55 -107 -55 -110 0 -3 -13
-33 -29 -68 -48 -105 -126 -291 -137 -327 -3 -11 -75 -230 -122 -370 -7 -20
-10 -31 -16 -57 -12 -45 -15 -59 -30 -115 -17 -63 -15 -55 -54 -235 -16 -73
-27 -135 -25 -137 3 -3 1 -11 -3 -18 -4 -7 -9 -19 -10 -28 -4 -42 -17 -130
-25 -173 -5 -26 -8 -51 -8 -55 1 -4 0 -9 -1 -12 -2 -6 -6 -39 -14 -135 -3 -38
-8 -90 -11 -115 -21 -198 -20 -633 1 -870 4 -36 7 -78 9 -95 8 -92 22 -210 25
-210 2 0 3 -18 5 -40 1 -22 5 -50 9 -61 3 -12 9 -39 11 -60 2 -22 9 -64 15
-94 6 -30 13 -66 16 -79 8 -37 34 -154 40 -176 5 -21 11 -47 18 -80 2 -11 11
-42 19 -70 30 -103 48 -165 47 -167 -1 -2 22 -68 50 -148 28 -80 52 -149 54
-155 5 -16 17 -48 26 -70 5 -11 25 -60 45 -110 20 -49 45 -109 56 -132 10 -23
19 -45 19 -48 0 -4 9 -20 21 -36 11 -16 18 -29 14 -29 -13 0 234 -457 271
-500 7 -8 14 -19 15 -25 5 -20 34 -65 42 -65 4 0 7 -5 7 -11 0 -13 175 -270
215 -315 6 -6 17 -22 25 -34 8 -12 22 -30 30 -40 8 -10 22 -27 30 -37 41 -52
146 -179 155 -189 5 -6 44 -49 85 -94 121 -134 351 -359 456 -447 12 -10 46
-39 77 -66 30 -26 81 -67 114 -92 32 -24 69 -54 83 -65 57 -46 72 -58 155
-115 48 -33 95 -65 104 -70 9 -6 48 -31 87 -57 110 -71 205 -128 215 -128 5 0
9 -5 9 -11 0 -5 4 -8 9 -5 5 3 14 -1 21 -9 6 -8 27 -19 46 -25 19 -6 34 -15
34 -19 0 -4 16 -13 35 -20 19 -7 35 -17 35 -22 0 -5 5 -9 11 -9 6 0 51 -20
100 -45 49 -24 91 -45 94 -45 2 -1 37 -16 77 -35 107 -49 271 -117 286 -118 6
0 12 -4 12 -9 0 -4 3 -7 8 -7 4 1 10 0 15 -1 4 -1 12 -4 17 -5 6 -1 11 -3 13
-5 1 -1 9 -3 17 -5 14 -3 115 -39 150 -52 8 -4 17 -7 20 -8 3 -1 39 -12 80
-24 41 -13 80 -24 85 -26 6 -1 30 -7 55 -14 25 -7 45 -12 45 -11 0 1 12 -3 28
-9 15 -6 38 -13 50 -15 12 -3 31 -7 42 -10 137 -32 247 -56 280 -61 6 0 26 -4
45 -8 54 -11 91 -17 140 -23 25 -3 59 -8 75 -11 30 -5 40 -7 145 -17 30 -3 75
-7 100 -10 86 -11 216 -18 350 -19 l135 -2 0 268 0 268 -142 4 c-79 2 -176 7
-215 10 -40 4 -89 8 -108 10 -67 5 -272 34 -365 51 -16 3 -39 7 -50 8 -11 1
-33 5 -50 9 -16 4 -41 9 -55 11 -14 3 -35 7 -47 10 -13 4 -33 8 -45 12 -13 3
-32 7 -43 9 -23 4 -31 6 -150 39 -103 28 -281 83 -310 96 -11 4 -54 20 -95 35
-41 15 -100 37 -131 51 -91 39 -128 54 -136 56 -5 0 -74 34 -155 74 -80 41
-151 74 -157 74 -6 0 -11 5 -11 10 0 6 -4 10 -9 10 -5 0 -49 23 -98 51 -48 28
-103 60 -121 70 -108 62 -456 309 -526 374 -15 14 -29 25 -32 25 -3 0 -11 6
-18 13 -7 6 -41 37 -76 67 -89 77 -201 183 -280 265 -128 132 -155 161 -205
221 -27 32 -52 61 -55 64 -9 8 -92 113 -115 144 -11 16 -25 33 -30 40 -49 53
-285 407 -285 426 0 6 -4 10 -10 10 -5 0 -10 5 -10 10 0 6 -17 39 -39 74 -21
35 -44 77 -52 95 -8 17 -17 31 -21 31 -5 0 -7 3 -6 8 1 4 -7 25 -19 47 -11 22
-22 45 -23 50 -1 6 -11 22 -21 37 -10 14 -19 30 -19 34 0 5 -13 36 -29 69 -30
61 -112 252 -116 270 -1 5 -9 27 -19 47 -9 21 -16 43 -16 51 0 7 -4 17 -8 23
-4 5 -13 25 -19 44 -46 143 -85 267 -88 280 -2 8 -12 51 -24 96 -11 45 -23 92
-25 105 -3 13 -5 24 -6 24 -2 0 -10 34 -14 60 -1 11 -6 29 -9 40 -3 11 -8 36
-11 55 -3 19 -8 46 -10 60 -23 122 -30 171 -42 275 -3 28 -7 60 -9 73 -8 50
-18 213 -19 304 -1 54 -3 98 -6 98 -3 0 -4 21 -2 47 4 65 4 65 -2 90 -2 13 0
25 5 28 5 4 7 10 5 14 -10 16 -4 276 8 349 3 15 7 63 11 107 3 44 8 87 10 95
2 8 7 39 10 69 4 30 8 61 10 70 1 9 6 36 10 61 12 71 14 82 25 135 8 46 16 85
25 125 2 8 4 15 5 15 1 0 4 11 6 24 2 14 12 52 20 85 9 34 18 70 20 80 8 43
107 350 131 406 3 8 7 17 8 20 6 17 22 57 58 145 23 55 41 103 39 108 -1 4 3
7 8 7 6 0 10 7 10 15 0 19 182 376 244 480 115 190 333 505 378 546 10 9 18
20 18 23 0 4 6 13 13 21 6 7 32 37 57 66 70 82 131 151 160 181 15 14 38 39
52 55 13 15 56 58 95 96 39 37 69 67 66 67 -3 0 7 10 23 23 16 12 36 29 44 37
27 25 104 93 155 135 26 22 54 46 61 53 7 6 15 12 19 12 3 0 16 11 29 25 13
14 28 25 33 25 6 0 17 7 24 16 8 9 28 26 45 38 17 11 65 45 105 74 94 67 89
63 189 127 47 30 90 59 97 65 7 5 15 10 18 10 3 0 47 24 98 54 109 64 395 206
414 206 7 0 13 4 13 9 0 5 10 11 23 14 12 3 85 31 162 62 77 32 144 58 150 60
5 1 17 5 25 8 30 11 85 27 90 25 3 -1 15 4 27 11 18 9 199 62 293 86 44 11
209 47 230 50 14 3 36 7 50 10 25 5 48 9 113 21 17 3 48 7 67 9 19 2 49 6 65
9 17 3 57 8 90 12 33 3 74 8 90 10 82 9 309 22 421 23 l41 1 0 269 0 269 -134
-2 c-74 0 -136 -3 -138 -5z"/>
<path d="M14186 13523 c-1 -1 -42 -5 -91 -8 -118 -7 -182 -13 -228 -21 -20 -3
-47 -7 -60 -9 -12 -1 -44 -6 -72 -10 -27 -5 -59 -9 -70 -9 -11 -1 -22 -4 -25
-8 -3 -4 -28 -9 -55 -12 -62 -7 -290 -67 -410 -107 -49 -17 -97 -32 -105 -34
-8 -2 -16 -4 -17 -5 -2 -2 -6 -3 -10 -5 -10 -2 -41 -14 -78 -30 -51 -21 -100
-40 -105 -41 -3 0 -32 -13 -65 -28 -110 -52 -130 -60 -137 -58 -5 1 -8 -2 -8
-7 0 -5 -10 -13 -22 -17 -36 -10 -274 -145 -372 -210 -49 -32 -96 -63 -105
-69 -45 -27 -121 -86 -271 -207 -106 -86 -420 -384 -420 -400 0 -3 -15 -21
-32 -40 -18 -18 -51 -56 -73 -83 -22 -28 -42 -52 -45 -55 -29 -26 -250 -344
-250 -359 0 -5 -4 -11 -8 -13 -10 -4 -132 -213 -132 -227 0 -6 -4 -11 -10 -11
-5 0 -10 -9 -10 -19 0 -11 -3 -21 -7 -23 -7 -2 -63 -109 -68 -128 -6 -20 -27
-68 -35 -80 -12 -18 -11 -15 -65 -155 -38 -97 -121 -344 -130 -385 -6 -32 -26
-106 -32 -120 -3 -8 -7 -24 -8 -35 -2 -19 -8 -49 -20 -105 -3 -14 -8 -36 -10
-50 -2 -14 -7 -35 -9 -48 -10 -45 -28 -177 -32 -222 -2 -25 -4 -45 -4 -45 -4
0 -10 -52 -15 -140 -13 -200 -8 -543 10 -690 2 -16 7 -57 10 -90 5 -48 41
-253 61 -350 2 -11 6 -29 8 -40 2 -11 12 -49 21 -85 9 -36 18 -69 20 -75 1 -5
4 -17 7 -25 3 -8 17 -55 32 -105 24 -78 42 -131 72 -210 4 -11 8 -22 9 -25 2
-6 10 -26 43 -105 50 -123 124 -276 181 -375 18 -30 37 -67 44 -82 6 -16 15
-28 19 -28 4 0 8 -4 8 -10 0 -5 26 -49 57 -97 31 -48 56 -89 55 -90 -1 -2 5
-11 14 -20 8 -10 43 -56 77 -103 34 -47 65 -87 69 -88 4 -2 8 -8 8 -14 0 -6
11 -20 23 -32 13 -12 28 -29 33 -38 32 -55 355 -389 463 -478 30 -25 63 -53
73 -62 10 -10 20 -18 23 -18 3 0 17 -10 30 -22 33 -31 39 -36 120 -93 39 -27
75 -54 82 -60 30 -25 70 -51 93 -62 8 -4 17 -9 20 -13 9 -10 141 -90 150 -90
4 0 10 -3 12 -7 9 -22 346 -187 523 -257 124 -49 427 -148 442 -145 4 1 15 -1
23 -4 14 -6 81 -23 125 -32 60 -11 83 -16 110 -22 17 -3 37 -7 45 -8 21 -3 92
-15 115 -19 11 -2 49 -7 85 -11 36 -4 74 -9 85 -11 29 -6 205 -15 310 -17 l90
-2 0 3925 0 3925 -88 0 c-49 0 -89 -1 -91 -2z"/>
</g>
</svg>
